<svg xmlns="http://www.w3.org/2000/svg" viewBox="0 0 913 801">
    <style>
        .background{fill:#222;}
        .accent{fill:#4166f5;}
        .primary{fill:#000;}
    </style>
    <rect class="background" x="0" y="0" width="100%" height="100%"/>
    <!-- Screen -->
    <rect class="accent" x="107.78" y="107.47" width="699.12" height="387.39"/>
    <path class="primary" d="M800.43,113.95V488.4H114.26V113.95H800.43 M813.38,101H101.31v400.34h712.07V101L813.38,101z"/>
    <!-- Board -->
    <path class="background" d="M391.62,280.33c20.56-46.82,757.53,214.73,1028.3,555.43c-31.75,26.39-41.78,42.15-50.28,75.65 C667.89,842.17,371.06,327.15,391.62,280.33z"/>
    <path class="primary" d="M390.43,279.81c0.81-1.84,2.39-3.01,3.9-3.78c1.54-0.82,3.15-1.23,4.74-1.6c3.19-0.64,6.37-0.84,9.53-0.86 c6.32-0.01,12.57,0.57,18.76,1.38c12.41,1.57,24.65,4.01,36.81,6.7c24.35,5.36,48.38,11.97,72.34,18.78 c47.86,13.9,95.27,29.43,142.19,46.39c93.87,33.85,185.19,74.87,272.92,122.57c87.71,47.76,171.56,102.44,251.66,161.79 c39.93,29.86,79.02,60.83,116.38,93.91c9.34,8.27,18.46,16.78,27.56,25.32c9.09,8.55,18.05,17.25,26.8,26.16 c17.45,17.87,34.5,36.21,50.42,55.59l3.52,4.28l-4.35,3.76c-5.78,4.99-11.37,10.14-16.59,15.5c-5.21,5.36-9.98,10.98-13.96,17 c-4,6.01-7.2,12.42-9.73,19.25c-2.52,6.83-4.45,14.03-6.15,21.37l-1.47,6.36l-6.84-0.53c-25.55-1.97-51.07-4.56-76.53-7.8 c-25.45-3.26-50.81-7.35-76.07-12.07c-50.48-9.6-100.43-22.16-149.55-37.47c-49.13-15.3-97.37-33.57-144.43-54.56 c-47.01-21.08-92.71-45.17-136.61-72.19c-21.98-13.46-43.48-27.69-64.5-42.59c-21.03-14.89-41.6-30.43-61.52-46.75 c-39.84-32.65-77.26-68.21-111.85-106.22c-17.27-19.03-33.84-38.67-49.71-58.82c-7.94-10.07-15.64-20.33-23.18-30.69 c-7.59-10.33-14.92-20.83-22.04-31.48c-14.13-21.36-27.65-43.12-39.47-65.84c-5.9-11.36-11.49-22.89-16.12-34.86 c-2.32-5.98-4.46-12.05-6.04-18.32c-0.79-3.13-1.43-6.32-1.76-9.59C389.24,286.64,389.05,283.23,390.43,279.81z M392.8,280.85 c-1.03,2.55-0.95,5.75-0.66,8.78c0.33,3.07,0.98,6.15,1.77,9.18c1.6,6.08,3.72,12.05,6.1,17.92c4.83,11.71,10.52,23.08,16.7,34.17 c6.21,11.08,12.81,21.93,19.84,32.52c6.98,10.61,14.32,20.99,21.94,31.14c7.63,10.15,15.45,20.15,23.51,29.95 c8.09,9.78,16.4,19.37,24.88,28.8c16.96,18.86,34.67,37.01,52.93,54.55c36.48,35.13,75.12,67.82,115.21,98.48 c20.03,15.36,40.48,30.14,61.29,44.4c10.41,7.12,20.95,14.04,31.57,20.84c10.6,6.83,21.3,13.51,32.11,19.99 c86.44,51.95,178.47,94.68,274.38,126.54c23.98,7.92,48.17,15.29,72.57,21.88c24.39,6.63,48.95,12.73,73.68,18.05 c24.71,5.47,49.56,10.33,74.54,14.57c24.97,4.31,50.06,8,75.25,11.07l-8.31,5.83c2.13-7.65,4.56-15.34,7.73-22.92 c3.18-7.56,7.26-14.93,12.14-21.61c4.87-6.7,10.45-12.68,16.26-18.17c5.82-5.5,11.9-10.54,17.99-15.48l-0.83,8.04 c-30.03-39.13-64.32-75.12-101.11-108.27c-36.7-33.28-75.86-63.89-116.6-92.13c-40.64-28.4-82.9-54.43-125.85-79.11 c-21.48-12.35-43.19-24.27-64.96-36.08c-21.81-11.72-43.75-23.2-65.75-34.55c-44.02-22.66-88.41-44.58-133.1-65.92 c-22.36-10.63-44.75-21.22-67.27-31.55c-22.48-10.42-45.08-20.6-67.8-30.51c-22.71-9.96-45.56-19.6-68.6-28.82 c-23.01-9.27-46.26-17.95-69.71-26.05c-23.44-8.11-47.18-15.43-71.24-21.42c-12.03-2.95-24.17-5.52-36.4-7.29 c-6.12-0.84-12.27-1.41-18.39-1.43c-3.05,0-6.1,0.19-9.01,0.77c-1.43,0.32-2.87,0.7-4.08,1.34 C394.3,278.96,393.26,279.79,392.8,280.85z"/>
    <rect class="background" x="813.41" y="0" width="662.59" height="100%"/>
    <rect class="background" x="0" y="500.34" width="100%" height="300.66"/>
    <!-- Text -->
    <path class="primary" d="M176.35,691.41c-0.71-3.48-1.26-6.55-1.65-9.22c-0.39-2.66-0.62-5.35-0.7-8.05 c-3.91,5.54-9,10.18-15.29,13.91c-6.29,3.73-13.05,5.59-20.3,5.59c-12.01,0-21.15-3.07-27.44-9.22 c-6.29-6.14-9.43-14.62-9.43-25.42c0-11.01,4.46-19.62,13.37-25.84c8.91-6.22,21.01-9.32,36.29-9.32h22.8v-11.4 c0-6.75-2.06-12.1-6.18-16.04c-4.12-3.94-9.95-5.91-17.48-5.91c-6.82,0-12.33,1.7-16.52,5.12c-4.19,3.41-6.29,7.5-6.29,12.25 l-19.93,0.21l-0.21-0.64c-0.5-8.38,3.43-16.06,11.78-23.02c8.35-6.96,19.13-10.44,32.34-10.44c13.07,0,23.59,3.32,31.54,9.96 c7.96,6.64,11.94,16.22,11.94,28.72v55.52c0,4.12,0.21,8.1,0.64,11.94c0.43,3.84,1.2,7.6,2.34,11.3H176.35z M141.51,676.07 c7.6,0,14.46-1.95,20.57-5.86c6.11-3.91,10.09-8.38,11.93-13.43v-18.76h-23.55c-8.46,0-15.22,2.13-20.3,6.39 c-5.08,4.26-7.62,9.27-7.62,15.03c0,5.12,1.6,9.16,4.8,12.15C130.53,674.58,135.25,676.07,141.51,676.07z"/>
    <path class="primary" d="M257.34,638.24h-10.76v53.18h-20.99V525.17h20.99v96.34h10.55l34.63-45.4h25.15l-41.88,53.18l45.5,62.13 h-24.83L257.34,638.24z"/>
    <path class="primary" d="M360.07,691.41h-20.99v-115.3h20.99V691.41z"/>
    <path class="primary" d="M415.06,691.41h-21V525.17h21V691.41z"/>
    <path class="primary" d="M470.05,691.41h-21V525.17h21V691.41z"/>
    <path class="primary" d="M525.04,691.41h-21v-115.3h21V691.41z"/>
    <path class="primary" d="M640.7,664.66l0.12,0.34c0.15,7.85-2.6,14.41-8.27,19.69c-5.66,5.28-13.14,7.92-22.44,7.92 c-9.45,0-17.15-3.35-23.1-10.05c-5.95-6.7-8.93-15.19-8.93-25.49v-14.87c0-10.29,2.97-18.8,8.93-25.51 c5.95-6.72,13.65-10.07,23.1-10.07c9.45,0,16.97,2.52,22.56,7.55c5.59,5.03,8.3,11.7,8.15,20l-0.12,0.34h-10.85 c0-5.85-1.72-10.48-5.17-13.89c-3.45-3.41-8.3-5.11-14.58-5.11c-6.31,0-11.35,2.55-15.1,7.63c-3.75,5.09-5.62,11.4-5.62,18.94 v14.98c0,7.61,1.87,13.97,5.62,19.06c3.75,5.09,8.78,7.63,15.1,7.63c6.28,0,11.13-1.69,14.58-5.08c3.45-3.39,5.17-8.07,5.17-14.04 H640.7z"/>
    <path class="primary" d="M696.95,675.74h0.35l26.69-67.9h14.06v83.58h-11.31v-62.62l-0.34-0.06l-25.31,62.68h-7.86l-26.06-64.75 l-0.34,0.06v64.69h-11.31v-83.58h14.87L696.95,675.74z"/>
    <path class="primary" d="M802.17,670.35c0-3.79-1.36-6.96-4.08-9.53c-2.72-2.56-7.5-4.74-14.35-6.54c-8.49-2.1-15.12-5.2-19.89-9.3 c-4.76-4.09-7.15-9.24-7.15-15.44c0-6.54,2.56-12,7.69-16.36c5.12-4.36,11.78-6.54,19.97-6.54c8.8,0,15.82,2.5,21.04,7.49 c5.22,4.99,7.76,10.82,7.61,17.48l-0.17,0.34h-10.79c0-4.74-1.66-8.67-4.97-11.77c-3.31-3.1-7.55-4.65-12.72-4.65 c-5.28,0-9.33,1.28-12.14,3.85c-2.81,2.56-4.22,5.89-4.22,9.99c0,3.64,1.54,6.67,4.62,9.1c3.08,2.43,8.08,4.56,15.01,6.4 c8.42,2.18,14.83,5.39,19.23,9.64c4.4,4.25,6.6,9.49,6.6,15.73c0,6.74-2.65,12.15-7.95,16.24c-5.3,4.1-12.22,6.14-20.75,6.14 c-8.07,0-15.2-2.26-21.38-6.77c-6.18-4.52-9.17-10.56-8.98-18.14l0.12-0.34h10.79c0,5.24,1.99,9.29,5.97,12.14 c3.98,2.85,8.48,4.28,13.49,4.28c5.36,0,9.6-1.21,12.72-3.62C800.61,677.75,802.17,674.48,802.17,670.35z"/>
</svg>
